<?xml version="1.0" encoding="UTF-8" standalone="no"?>
<svg
   xmlns:dc="http://purl.org/dc/elements/1.1/"
   xmlns:cc="http://creativecommons.org/ns#"
   xmlns:rdf="http://www.w3.org/1999/02/22-rdf-syntax-ns#"
   xmlns:svg="http://www.w3.org/2000/svg"
   xmlns="http://www.w3.org/2000/svg"
   fill="#000000"
   xml:space="preserve"
   enable-background="new 0 0 50 50"
   viewBox="0 0 50 50"
   height="50px"
   width="50px"
   y="0px"
   x="0px"
   id="Layer_1"
   version="1.1"><metadata
     id="metadata15"><rdf:RDF><cc:Work
         rdf:about=""><dc:format>image/svg+xml</dc:format><dc:type
           rdf:resource="http://purl.org/dc/dcmitype/StillImage" /><dc:title></dc:title></cc:Work></rdf:RDF></metadata><defs
     id="defs13" /><polygon
     style="fill:#ff7f2a"
     id="polygon3"
     fill="#000000"
     points="35,5 35,8.016 41,14.266 41,5 " /><g
     style="fill:#ff7f2a"
     id="g5"
     fill="#000000"><rect
       style="fill:#ff7f2a"
       id="rect7"
       fill="#000000"
       height="21"
       width="10"
       y="29"
       x="20" /><path
       style="fill:#ff7f2a"
       id="path9"
       fill="#000000"
       d="M49.611,25.25L25.721,0.36c-0.378-0.394-1.065-0.394-1.443,0L0.388,25.25c-0.382,0.398-0.369,1.031,0.029,1.414   c0.398,0.382,1.03,0.37,1.414-0.029L5,23.334V50h13V27h14v23h13V23.335l3.168,3.301c0.196,0.204,0.459,0.308,0.722,0.308   c0.249-0.001,0.499-0.093,0.692-0.279C49.98,26.282,49.993,25.649,49.611,25.25z" /></g></svg>