<?xml version="1.0" encoding="UTF-8" standalone="no"?>
<!-- Generator: Adobe Illustrator 15.0.0, SVG Export Plug-In . SVG Version: 6.00 Build 0)  -->

<svg
   xmlns:dc="http://purl.org/dc/elements/1.1/"
   xmlns:cc="http://creativecommons.org/ns#"
   xmlns:rdf="http://www.w3.org/1999/02/22-rdf-syntax-ns#"
   xmlns:svg="http://www.w3.org/2000/svg"
   xmlns="http://www.w3.org/2000/svg"
   xmlns:sodipodi="http://sodipodi.sourceforge.net/DTD/sodipodi-0.dtd"
   xmlns:inkscape="http://www.inkscape.org/namespaces/inkscape"
   version="1.1"
   id="Слой_1"
   x="0px"
   y="0px"
   width="300"
   height="300"
   viewBox="0 0 1500 1500"
   enable-background="new 0 0 50 50"
   xml:space="preserve"
   inkscape:version="0.91 r13725"
   sodipodi:docname="presentation-icon.svg"
   style="fill:#ff7f00"><metadata
     id="metadata23"><rdf:RDF><cc:Work
         rdf:about=""><dc:format>image/svg+xml</dc:format><dc:type
           rdf:resource="http://purl.org/dc/dcmitype/StillImage" /><dc:title></dc:title></cc:Work></rdf:RDF></metadata><defs
     id="defs21" /><sodipodi:namedview
     pagecolor="#ffffff"
     bordercolor="#666666"
     borderopacity="1"
     objecttolerance="10"
     gridtolerance="10"
     guidetolerance="10"
     inkscape:pageopacity="0"
     inkscape:pageshadow="2"
     inkscape:window-width="1522"
     inkscape:window-height="903"
     id="namedview19"
     showgrid="false"
     fit-margin-top="0"
     fit-margin-left="0"
     fit-margin-right="0"
     fit-margin-bottom="0"
     inkscape:zoom="2.3366667"
     inkscape:cx="150"
     inkscape:cy="150"
     inkscape:window-x="24"
     inkscape:window-y="43"
     inkscape:window-maximized="0"
     inkscape:current-layer="Слой_1" /><g
     id="g4182"
     transform="scale(32.608695,32.608695)"><line
       style="fill:none;stroke:#ff7f00;stroke-width:0.06133334;stroke-linejoin:round;stroke-miterlimit:10"
       id="line3"
       y2="4.4408921e-16"
       x2="28"
       y1="3"
       x1="28"
       stroke-miterlimit="10" /><g
       transform="translate(-2,-2)"
       style="fill:#ff7f00"
       id="g5"><polygon
         style="fill:#ff7f00"
         id="polygon7"
         points="35,45 37,45 32.5,36 30.5,36 " /><polygon
         style="fill:#ff7f00"
         id="polygon9"
         points="23,45 25,45 29.5,36 27.5,36 " /></g><path
       style="fill:#ff7f00"
       inkscape:connector-curvature="0"
       id="path11"
       d="M 10,10 C 7.243,10 5,7.757 5,5 5,2.243 7.243,0 10,0 c 2.757,0 5,2.243 5,5 0,2.757 -2.243,5 -5,5 z" /><path
       style="fill:#ff7f00"
       inkscape:connector-curvature="0"
       id="path13"
       d="M 26.5,11 13.517,11 10,18 6.516,11 5.5,11 C 2.467,11 0,13.467 0,16.5 L 0,30 c 0,1.104 0.897,2 2,2 1.103,0 2,-0.896 2,-2 L 4,18.547 c 0,-0.271 0.229,-0.5 0.5,-0.5 0.271,0 0.5,0.229 0.5,0.5 L 5,43.3 C 5,44.864 5.835,46 7.4,46 8.882,46 10,44.839 10,43.3 l 0,-11.6 c 0,-0.276 0.224,-0.5 0.5,-0.5 0.276,0 0.5,0.224 0.5,0.5 l 0,11.892 c 0.004,0.006 0.012,0.01 0.016,0.016 C 11.153,44.991 12.218,46 13.6,46 15.164,46 16,44.864 16,43.3 L 16,16 26.5,16 C 27.881,16 29,14.881 29,13.5 29,12.119 27.881,11 26.5,11 Z" /><g
       transform="translate(-2,-2)"
       style="fill:#ff7f00"
       id="g15"><path
         style="fill:#ff7f00"
         inkscape:connector-curvature="0"
         id="path17"
         d="M 47,4 18.315,4 C 18.75,4.911 19,5.925 19,7 19,8.487 18.53,9.865 17.736,11 L 28.5,11 c 2.481,0 4.5,2.019 4.5,4.5 0,2.481 -2.019,4.5 -4.5,4.5 l -8.5,0 0,14 27,0 c 0.553,0 1,-0.447 1,-1 L 48,5 C 48,4.448 47.553,4 47,4 Z" /></g></g></svg>