<?xml version="1.0" encoding="UTF-8" standalone="no"?>
<svg
   xmlns:dc="http://purl.org/dc/elements/1.1/"
   xmlns:cc="http://creativecommons.org/ns#"
   xmlns:rdf="http://www.w3.org/1999/02/22-rdf-syntax-ns#"
   xmlns:svg="http://www.w3.org/2000/svg"
   xmlns="http://www.w3.org/2000/svg"
   id="svg8"
   version="1.1"
   viewBox="0 0 302.82373 87.443344"
   height="87.443344mm"
   width="302.82373mm">
  <defs
     id="defs2" />
  <metadata
     id="metadata5">
    <rdf:RDF>
      <cc:Work
         rdf:about="">
        <dc:format>image/svg+xml</dc:format>
        <dc:type
           rdf:resource="http://purl.org/dc/dcmitype/StillImage" />
        <dc:title></dc:title>
      </cc:Work>
    </rdf:RDF>
  </metadata>
  <g
     transform="translate(297.84525,205.4612)"
     id="layer1">
    <path
       id="rect3712"
       d="M -297.84525,-167.15477 H 4.9784851 v 49.13691 H -297.84525 Z"
       style="fill:#000000;stroke-width:0.1245131" />
    <g
       id="flowRoot3680"
       style="font-style:normal;font-weight:normal;font-size:40px;line-height:1.25;font-family:sans-serif;letter-spacing:0px;word-spacing:0px;fill:#000000;fill-opacity:1;stroke:none"
       transform="scale(0.26458333)"
       aria-label="RECKLESS">
      <path
         id="path31"
         style="font-style:normal;font-variant:normal;font-weight:900;font-stretch:normal;font-size:192px;font-family:Arial;-inkscape-font-specification:'Arial Heavy'"
         d="m -1113.9473,-636.76505 v -137.4375 h 70.7813 q 19.6875,0 30.0937,3.375 10.4063,3.375 16.78128,12.5625 6.375,9.09375 6.375,22.21875 0,11.4375 -4.875,19.78125 -4.875,8.25 -13.40628,13.40625 -5.4375,3.28125 -14.9062,5.4375 7.5937,2.53125 11.0625,5.0625 2.3437,1.6875 6.75,7.21875 4.5,5.53125 5.99998,8.53125 l 20.53125,39.84375 h -48.00003 l -22.6875,-42 q -4.3125,-8.15625 -7.6875,-10.59375 -4.5937,-3.1875 -10.4062,-3.1875 h -3.75 v 55.78125 z m 42.6563,-81.75 h 17.9062 q 2.9063,0 11.25,-1.875 4.2188,-0.84375 6.8438,-4.3125 2.7187,-3.46875 2.7187,-7.96875 0,-6.65625 -4.2187,-10.21875 -4.2188,-3.5625 -15.8438,-3.5625 h -18.6562 z" />
      <path
         id="path33"
         style="font-style:normal;font-variant:normal;font-weight:900;font-stretch:normal;font-size:192px;font-family:Arial;-inkscape-font-specification:'Arial Heavy'"
         d="m -965.35352,-774.20255 h 113.8125 v 29.34375 h -71.25 v 21.84375 h 66.09375 v 28.03125 h -66.09375 v 27.09375 h 73.3125 v 31.125 h -115.875 z" />
      <path
         id="path35"
         style="font-style:normal;font-variant:normal;font-weight:900;font-stretch:normal;font-size:192px;font-family:Arial;-inkscape-font-specification:'Arial Heavy'"
         d="m -735.00977,-692.9213 37.21875,11.25 q -3.75,15.65625 -11.8125,26.15625 -8.0625,10.5 -20.0625,15.84375 -11.90625,5.34375 -30.375,5.34375 -22.40625,0 -36.65625,-6.46875 -14.15625,-6.5625 -24.46875,-22.96875 -10.3125,-16.40625 -10.3125,-42 0,-34.125 18.09375,-52.40625 18.1875,-18.375 51.375,-18.375 25.96875,0 40.78125,10.5 14.90625,10.5 22.125,32.25 l -37.5,8.34375 q -1.96875,-6.28125 -4.125,-9.1875 -3.5625,-4.875 -8.71875,-7.5 -5.15625,-2.625 -11.53125,-2.625 -14.4375,0 -22.125,11.625 -5.8125,8.625 -5.8125,27.09375 0,22.875 6.9375,31.40625 6.9375,8.4375 19.5,8.4375 12.1875,0 18.375,-6.84375 6.28125,-6.84375 9.09375,-19.875 z" />
      <path
         id="path37"
         style="font-style:normal;font-variant:normal;font-weight:900;font-stretch:normal;font-size:192px;font-family:Arial;-inkscape-font-specification:'Arial Heavy'"
         d="m -677.07227,-774.20255 h 42.46875 v 51.9375 l 44.53125,-51.9375 h 56.4375 l -50.0625,51.84375 52.3125,85.59375 h -52.3125 l -28.96875,-56.53125 -21.9375,22.96875 v 33.5625 h -42.46875 z" />
      <path
         id="path39"
         style="font-style:normal;font-variant:normal;font-weight:900;font-stretch:normal;font-size:192px;font-family:Arial;-inkscape-font-specification:'Arial Heavy'"
         d="m -517.13477,-774.20255 h 42.46875 v 103.59375 h 66.28125 v 33.84375 h -108.75 z" />
      <path
         id="path41"
         style="font-style:normal;font-variant:normal;font-weight:900;font-stretch:normal;font-size:192px;font-family:Arial;-inkscape-font-specification:'Arial Heavy'"
         d="m -388.97852,-774.20255 h 113.8125 v 29.34375 h -71.25 v 21.84375 h 66.09375 v 28.03125 h -66.09375 v 27.09375 h 73.3125 v 31.125 h -115.875 z" />
      <path
         id="path43"
         style="font-style:normal;font-variant:normal;font-weight:900;font-stretch:normal;font-size:192px;font-family:Arial;-inkscape-font-specification:'Arial Heavy'"
         d="m -257.54102,-682.2338 40.40625,-2.53125 q 1.3125,9.84375 5.34375,15 6.5625,8.34375 18.75,8.34375 9.09375,0 13.96875,-4.21875 4.96875,-4.3125 4.96875,-9.9375 0,-5.34375 -4.6875,-9.5625 -4.6875,-4.21875 -21.75,-7.96875 -27.9375,-6.28125 -39.84375,-16.6875 -12,-10.40625 -12,-26.53125 0,-10.59375 6.09375,-19.96875 6.1875,-9.46875 18.46875,-14.8125 12.375,-5.4375 33.84375,-5.4375 26.34375,0 40.125,9.84375 13.875,9.75 16.5,31.125 l -40.03125,2.34375 q -1.59375,-9.28125 -6.75,-13.5 -5.0625,-4.21875 -14.0625,-4.21875 -7.40625,0 -11.15625,3.1875 -3.75,3.09375 -3.75,7.59375 0,3.28125 3.09375,5.90625 3,2.71875 14.25,5.0625 27.84375,6 39.84375,12.1875 12.09375,6.09375 17.53125,15.1875 5.53125,9.09375 5.53125,20.34375 0,13.21875 -7.3125,24.375 -7.3125,11.15625 -20.4375,16.96875 -13.125,5.71875 -33.09375,5.71875 -35.0625,0 -48.5625,-13.5 -13.5,-13.5 -15.28125,-34.3125 z" />
      <path
         id="path45"
         style="font-style:normal;font-variant:normal;font-weight:900;font-stretch:normal;font-size:192px;font-family:Arial;-inkscape-font-specification:'Arial Heavy'"
         d="m -118.79102,-682.2338 40.406254,-2.53125 q 1.3125,9.84375 5.34375,15 6.5625,8.34375 18.75,8.34375 9.09375,0 13.96875,-4.21875 4.96875,-4.3125 4.96875,-9.9375 0,-5.34375 -4.6875,-9.5625 -4.6875,-4.21875 -21.75,-7.96875 -27.9375,-6.28125 -39.843754,-16.6875 -12,-10.40625 -12,-26.53125 0,-10.59375 6.09375,-19.96875 6.1875,-9.46875 18.468754,-14.8125 12.375,-5.4375 33.84375,-5.4375 26.34375,0 40.125,9.84375 13.8750004,9.75 16.5000004,31.125 l -40.0312504,2.34375 q -1.59375,-9.28125 -6.75,-13.5 -5.0625,-4.21875 -14.0625,-4.21875 -7.40625,0 -11.15625,3.1875 -3.75,3.09375 -3.75,7.59375 0,3.28125 3.09375,5.90625 3,2.71875 14.25,5.0625 27.84375,6 39.84375,12.1875 12.0937504,6.09375 17.53125038,15.1875 5.53125002,9.09375 5.53125002,20.34375 0,13.21875 -7.3125,24.375 -7.3125,11.15625 -20.4375004,16.96875 -13.125,5.71875 -33.09375,5.71875 -35.0625,0 -48.562504,-13.5 -13.5,-13.5 -15.28125,-34.3125 z" />
    </g>
    <g
       id="flowRoot3680-1"
       style="font-style:normal;font-weight:normal;font-size:40px;line-height:1.25;font-family:sans-serif;letter-spacing:0px;word-spacing:0px;fill:#000000;fill-opacity:1;stroke:none"
       transform="matrix(0.26458333,0,0,0.26458333,0.68707714,42.926611)"
       aria-label="COWBOYS">
      <path
         id="path16"
         style="font-style:normal;font-variant:normal;font-weight:900;font-stretch:normal;font-size:192px;font-family:Arial;-inkscape-font-specification:'Arial Heavy';letter-spacing:11.86001015px;fill:#ffffff"
         d="m -1023.0098,-692.9213 37.21878,11.25 q -3.75,15.65625 -11.8125,26.15625 -8.06248,10.5 -20.06248,15.84375 -11.9063,5.34375 -30.375,5.34375 -22.4063,0 -36.6563,-6.46875 -14.1562,-6.5625 -24.4687,-22.96875 -10.3125,-16.40625 -10.3125,-42 0,-34.125 18.0937,-52.40625 18.1875,-18.375 51.375,-18.375 25.9688,0 40.7813,10.5 14.90623,10.5 22.12498,32.25 l -37.49998,8.34375 q -1.9688,-6.28125 -4.125,-9.1875 -3.5625,-4.875 -8.7188,-7.5 -5.1562,-2.625 -11.5312,-2.625 -14.4375,0 -22.125,11.625 -5.8125,8.625 -5.8125,27.09375 0,22.875 6.9375,31.40625 6.9375,8.4375 19.5,8.4375 12.1875,0 18.375,-6.84375 6.2812,-6.84375 9.0937,-19.875 z" />
      <path
         id="path18"
         style="font-style:normal;font-variant:normal;font-weight:900;font-stretch:normal;font-size:192px;font-family:Arial;-inkscape-font-specification:'Arial Heavy';letter-spacing:11.86001015px;fill:#ffffff"
         d="m -958.7435,-705.39005 q 0,-33.65625 18.75,-52.40625 18.75,-18.75 52.21875,-18.75 34.3125,0 52.875,18.46875 18.5625,18.375 18.5625,51.5625 0,24.09375 -8.15625,39.5625 -8.0625,15.375 -23.4375,24 -15.28125,8.53125 -38.15625,8.53125 -23.25,0 -38.53125,-7.40625 -15.1875,-7.40625 -24.65625,-23.4375 -9.46875,-16.03125 -9.46875,-40.125 z m 42.46875,0.1875 q 0,20.8125 7.6875,29.90625 7.78125,9.09375 21.09375,9.09375 13.6875,0 21.1875,-8.90625 7.5,-8.90625 7.5,-31.96875 0,-19.40625 -7.875,-28.3125 -7.78125,-9 -21.1875,-9 -12.84375,0 -20.625,9.09375 -7.78125,9.09375 -7.78125,30.09375 z" />
      <path
         id="path20"
         style="font-style:normal;font-variant:normal;font-weight:900;font-stretch:normal;font-size:192px;font-family:Arial;-inkscape-font-specification:'Arial Heavy';letter-spacing:11.86001015px;fill:#ffffff"
         d="m -798.94598,-774.20255 h 40.3125 l 14.53125,76.78125 21.1875,-76.78125 h 40.21875 l 21.28125,76.78125 14.53125,-76.78125 h 40.125 l -30.28125,137.4375 h -41.625 l -24.09375,-86.53125 -24,86.53125 h -41.625 z" />
      <path
         id="path22"
         style="font-style:normal;font-variant:normal;font-weight:900;font-stretch:normal;font-size:192px;font-family:Arial;-inkscape-font-specification:'Arial Heavy';letter-spacing:11.86001015px;fill:#ffffff"
         d="m -580.836,-774.20255 h 79.5 q 19.875,0 30.46875,9.84375 10.6875,9.84375 10.6875,24.375 0,12.1875 -7.59375,20.90625 -5.0625,5.8125 -14.8125,9.1875 14.8125,3.5625 21.75,12.28125 7.03125,8.625 7.03125,21.75 0,10.6875 -4.96875,19.21875 -4.96875,8.53125 -13.59375,13.5 -5.34375,3.09375 -16.125,4.5 -14.34375,1.875 -19.03125,1.875 h -73.3125 z m 42.84375,53.90625 h 18.46875 q 9.9375,0 13.78125,-3.375 3.9375,-3.46875 3.9375,-9.9375 0,-6 -3.9375,-9.375 -3.84375,-3.375 -13.5,-3.375 h -18.75 z m 0,54 h 21.65625 q 10.96875,0 15.46875,-3.84375 4.5,-3.9375 4.5,-10.5 0,-6.09375 -4.5,-9.75 -4.40625,-3.75 -15.5625,-3.75 h -21.5625 z" />
      <path
         id="path24"
         style="font-style:normal;font-variant:normal;font-weight:900;font-stretch:normal;font-size:192px;font-family:Arial;-inkscape-font-specification:'Arial Heavy';letter-spacing:11.86001015px;fill:#ffffff"
         d="m -425.16345,-705.39005 q 0,-33.65625 18.75,-52.40625 18.75,-18.75 52.21875,-18.75 34.3125,0 52.875,18.46875 18.5625,18.375 18.5625,51.5625 0,24.09375 -8.15625,39.5625 -8.0625,15.375 -23.4375,24 -15.28125,8.53125 -38.15625,8.53125 -23.25,0 -38.53125,-7.40625 -15.1875,-7.40625 -24.65625,-23.4375 -9.46875,-16.03125 -9.46875,-40.125 z m 42.46875,0.1875 q 0,20.8125 7.6875,29.90625 7.78125,9.09375 21.09375,9.09375 13.6875,0 21.1875,-8.90625 7.5,-8.90625 7.5,-31.96875 0,-19.40625 -7.875,-28.3125 -7.78125,-9 -21.1875,-9 -12.84375,0 -20.625,9.09375 -7.78125,9.09375 -7.78125,30.09375 z" />
      <path
         id="path26"
         style="font-style:normal;font-variant:normal;font-weight:900;font-stretch:normal;font-size:192px;font-family:Arial;-inkscape-font-specification:'Arial Heavy';letter-spacing:11.86001015px;fill:#ffffff"
         d="m -274.83472,-774.20255 h 47.15625 l 27.75,46.40625 27.75,-46.40625 h 46.875 l -53.4375,79.875 v 57.5625 h -42.5625 v -57.5625 z" />
      <path
         id="path28"
         style="font-style:normal;font-variant:normal;font-weight:900;font-stretch:normal;font-size:192px;font-family:Arial;-inkscape-font-specification:'Arial Heavy';letter-spacing:11.86001015px;fill:#ffffff"
         d="m -115.50598,-682.2338 40.406249,-2.53125 q 1.3125,9.84375 5.34375,15 6.5625,8.34375 18.75,8.34375 9.09375,0 13.96875,-4.21875 4.96875,-4.3125 4.96875,-9.9375 0,-5.34375 -4.6875,-9.5625 -4.6875,-4.21875 -21.75,-7.96875 -27.9375,-6.28125 -39.84375,-16.6875 -11.999999,-10.40625 -11.999999,-26.53125 0,-10.59375 6.09375,-19.96875 6.187499,-9.46875 18.468749,-14.8125 12.375,-5.4375 33.84375,-5.4375 26.34375,0 40.125,9.84375 13.8749996,9.75 16.4999996,31.125 l -40.0312496,2.34375 q -1.59375,-9.28125 -6.75,-13.5 -5.0625,-4.21875 -14.0625,-4.21875 -7.40625,0 -11.15625,3.1875 -3.75,3.09375 -3.75,7.59375 0,3.28125 3.09375,5.90625 3,2.71875 14.25,5.0625 27.84375,6 39.84375,12.1875 12.0937496,6.09375 17.5312496,15.1875 5.53125,9.09375 5.53125,20.34375 0,13.21875 -7.3125,24.375 -7.3125,11.15625 -20.4374996,16.96875 -13.125,5.71875 -33.09375,5.71875 -35.0625,0 -48.562499,-13.5 -13.5,-13.5 -15.28125,-34.3125 z" />
    </g>
  </g>
</svg>

