<?xml version="1.0" encoding="UTF-8" standalone="no"?>
<svg xmlns="http://www.w3.org/2000/svg" viewBox="0 0 640 640" version="1.1">
   <defs id="defs6">
   <clipPath id="clipPath28"
       clipPathUnits="userSpaceOnUse"><path
         id="path30"
         d="m 0,652.3721 601.596,0 0,-511.5181 -601.596,0 0,511.5181 z" /></clipPath><clipPath
       id="clipPath34"
       clipPathUnits="userSpaceOnUse"><path
         id="path36"
         d="m 0,140 612,0 0,512 -612,0 0,-512 z" /></clipPath><clipPath
       id="clipPath46"
       clipPathUnits="userSpaceOnUse"><path
         id="path48"
         d="m 0,140 612,0 0,512 -612,0 0,-512 z" /></clipPath></defs><g
     transform="matrix(1.25,0,0,-1.25,0,815)"
     id="g10"><g
       id="g12" /><g
       id="g24"><g
         clip-path="url(#clipPath28)"
         id="g26"><g
           clip-path="url(#clipPath34)"
           id="g32"><path
             id="path40"
             style="fill:#0977b6;fill-opacity:1;fill-rule:nonzero;stroke:none"
             d="m 474.4566,652.3721 -436.66916,0 C 16.93674,652.3721 0,635.8339 0,615.4244 L 0,176.9762 C 0,156.5667 16.93674,140 37.78744,140 l 436.66916,0 c 20.8934,0 37.9013,16.5667 37.9013,36.9762 l 0,438.4482 c 0,20.4095 -17.0079,36.9477 -37.9013,36.9477" /></g></g></g><g
       id="g42"><g
         clip-path="url(#clipPath46)"
         id="g44"><path
           id="path50"
           style="fill:#ffffff;fill-opacity:1;fill-rule:nonzero;stroke:none"
           d="m 113.9743,581.8355 c 24.3092,0 44.0356,-19.7405 44.0356,-44.064 0,-24.3376 -19.7264,-44.0782 -44.0356,-44.0782 -24.40881,0 -44.09244,19.7406 -44.09244,44.0782 0,24.3235 19.68363,44.064 44.09244,44.064 m -38.05783,-121.546 76.07303,0 0,-244.5154 -76.07303,0 0,244.5154 z" /><path
           id="path52"
           style="fill:#ffffff;fill-opacity:1;fill-rule:nonzero;stroke:none"
           d="m 199.6543,460.2895 72.8423,0 0,-33.4323 1.0532,0 c 10.1335,19.2282 34.9267,39.4954 71.8886,39.4954 76.9555,0 91.1738,-50.6253 91.1738,-116.4793 l 0,-134.0992 -75.9876,0 0,118.9131 c 0,28.3512 -0.4839,64.8293 -39.4812,64.8293 -39.5522,0 -45.5868,-30.8989 -45.5868,-62.8083 l 0,-120.9341 -75.9023,0 0,244.5154" /></g></g></g></svg>
