<svg viewBox="0 0 240 240">

<defs>
<clipPath id="logo" clipPathUnits="userSpaceOnUse">
<path d="M 102.943,205.588 C 86.233,186.43 89.402,170.61 89.402,170.61 v 0 c 0,0 4.609,10.887 15.703,22.351 v 0 c 5.253,5.43 9.181,7.247 11.862,7.254 v 0 c 2.98,0.009 4.417,-2.22 4.417,-4.207 v 0 -38.894 c 0,-3.837 -2.473,-4.676 -4.752,-4.633 v 0 c -1.946,0.036 -3.748,0.712 -3.748,0.712 v 0 c 11.381,-16.544 38.609,-18.867 38.609,-18.867 v 0 l 11.957,12.773 0.281,-0.241 10.955,-9.337 c 20.025,11.9 29.679,33.961 29.679,33.961 v 0 c -8.935,-9.46 -14.631,-11.665 -18.011,-11.648 v 0 c -2.999,0.015 -4.176,1.778 -4.176,1.778 v 0 c -0.161,0.819 -0.441,12.652 -0.54,24.493 v 0 c -0.102,12.267 -0.013,24.542 0.602,24.579 v 0 c 3.458,6.49 14.489,19.576 14.489,19.576 v 0 c -20.602,-4.061 -31.837,-17.561 -31.837,-17.561 v 0 c -3.316,2.613 -10.085,2.179 -10.085,2.179 v 0 c 3.168,-1.744 6.338,-6.824 6.338,-11.032 v 0 -41.364 c 0,0 -6.915,-6.094 -12.245,-6.094 v 0 c -3.151,0 -5.094,1.725 -6.156,3.135 v 0 c -0.735,0.977 -1.049,1.8 -1.049,1.8 v 0 51.087 c -0.653,-0.473 -1.582,-0.868 -2.537,-0.862 v 0 c -1.132,0.005 -2.304,0.572 -3.1,2.242 v 0 c -0.601,1.257 -0.988,3.139 -0.988,5.877 v 0 c 0,9.432 10.661,15.674 10.661,15.674 v 0 c -13.543,-3.629 -26.076,-10.596 -42.788,-29.753" />
</clipPath>
</defs>

<g transform="matrix(1.3333333,0,0,-1.3333333,-88.994664,374.46134)">
<g transform="matrix(1.3823208,0,0,1.3823208,-48.610806,-63.991541)" style="fill:#000000;fill-opacity:1">
<g style="fill:#000000;fill-opacity:1" clip-path="url(#logo)" id="g3862">
<path style="fill:#000000;fill-opacity:1;fill-rule:nonzero;stroke:none" d="M 87.986,236.517 H 205.541 V 133.151 H 87.986 Z" />
</g>
</g>
</g>

</svg>
