<?xml version="1.0" encoding="UTF-8" standalone="no"?>
<svg
   xmlns:dc="http://purl.org/dc/elements/1.1/"
   xmlns:cc="http://creativecommons.org/ns#"
   xmlns:rdf="http://www.w3.org/1999/02/22-rdf-syntax-ns#"
   xmlns:svg="http://www.w3.org/2000/svg"
   xmlns="http://www.w3.org/2000/svg"
   fill="#000000"
   xml:space="preserve"
   enable-background="new 0 0 50 50"
   viewBox="0 0 50 50"
   height="50px"
   width="50px"
   y="0px"
   x="0px"
   id="Слой_1"
   version="1.1"><metadata
     id="metadata9"><rdf:RDF><cc:Work
         rdf:about=""><dc:format>image/svg+xml</dc:format><dc:type
           rdf:resource="http://purl.org/dc/dcmitype/StillImage" /><dc:title></dc:title></cc:Work></rdf:RDF></metadata><defs
     id="defs7" /><path
     d="M47,0H3C1.346,0,0,1.346,0,3v44c0,1.654,1.346,3,3,3h44c1.654,0,3-1.346,3-3V3C50,1.346,48.654,0,47,0z M13,42  c-2.761,0-5-2.238-5-5s2.239-5,5-5s5,2.238,5,5S15.761,42,13,42z M28.43,40.534c-0.246,0.886-1.05,1.467-1.927,1.467  c-0.177,0-0.356-0.024-0.535-0.073c-1.064-0.296-1.688-1.397-1.393-2.462C24.857,38.447,25,37.423,25,36.421  C25,30.123,19.876,25,13.579,25c-1.003,0-2.029,0.143-3.047,0.423c-1.07,0.292-2.167-0.333-2.46-1.396  c-0.293-1.065,0.332-2.166,1.396-2.46C10.833,21.191,12.216,21,13.579,21C22.082,21,29,27.918,29,36.421  C29,37.784,28.808,39.168,28.43,40.534z M41.708,40.284C41.565,41.281,40.71,42,39.731,42c-0.095,0-0.19-0.007-0.287-0.021  c-1.094-0.156-1.853-1.17-1.695-2.264C37.915,38.555,38,37.389,38,36.25C38,22.878,27.121,12,13.75,12  c-1.14,0-2.307,0.084-3.468,0.249c-1.092,0.156-2.106-0.604-2.262-1.698C7.864,9.458,8.625,8.445,9.718,8.289  C11.065,8.097,12.422,8,13.75,8C29.327,8,42,20.673,42,36.25C42,37.578,41.901,38.936,41.708,40.284z"
     fill="#ff6600"
     id="path3" /></svg>
