<?xml version="1.0" encoding="UTF-8" ?>
<svg viewBox="0 0 5.4927497 8.180917">
  <g transform="translate(-54.032452,-98.509584)">
      <path
         style="fill:#ff8020;fill-opacity:1;stroke-width:0.26458332"
         d="m 56.265535,106.6905 q -0.66675,0 -1.17475,-0.23283 -0.507999,-0.23284 -0.783166,-0.64559 -0.275167,-0.42333 -0.275167,-0.97366 0,-0.46567 0.1905,-0.84667 0.201084,-0.381 0.529167,-0.60325 0.338666,-0.22225 0.740833,-0.22225 0.370417,0 0.624417,0.1905 0.254,0.17992 0.3175,0.508 -0.550334,0 -0.878417,0.29633 -0.328083,0.28575 -0.328083,0.78317 0,0.45508 0.275166,0.73025 0.275167,0.27517 0.73025,0.27517 0.560917,0 0.92075,-0.37042 0.370417,-0.381 0.370417,-0.9525 0,-0.49742 -0.275167,-0.94192 -0.275166,-0.4445 -0.8255,-1.0795 -0.5715,-0.65616 -0.867833,-1.12183 -0.28575,-0.47625 -0.28575,-1.03717 0,-0.55033 0.306917,-0.984246 0.306916,-0.4445 0.846666,-0.6985 0.53975,-0.254 1.217084,-0.254 0.85725,0 1.36525,0.402166 0.518583,0.402167 0.518583,1.0795 0,0.4445 -0.22225,0.71967 -0.22225,0.27516 -0.582083,0.27516 -0.402167,0 -0.645584,-0.32808 0.201084,-0.14817 0.3175,-0.39158 0.116417,-0.24342 0.116417,-0.508003 0,-0.338667 -0.201083,-0.53975 -0.201084,-0.201083 -0.550334,-0.201083 -0.423333,0 -0.6985,0.306916 -0.264583,0.296334 -0.264583,0.762 0,0.42333 0.243417,0.79375 0.243416,0.35983 0.762,0.93133 0.423333,0.45509 0.677333,0.78317 0.264583,0.32808 0.4445,0.762 0.1905,0.42333 0.1905,0.92075 0,0.67733 -0.381,1.22767 -0.370417,0.55033 -1.026583,0.86783 -0.645584,0.3175 -1.439334,0.3175 z" />
  </g>
</svg>
