<?xml version="1.0" encoding="UTF-8" ?>
<svg viewBox="0 0 79.5 79.699997" >
  <g>
    <path
       style="fill:#ff6600"
       d="m 20.9,50.6 c 4,-0.8 5.6,-4.4 5.6,-7.1 0,-2.9 -2.7,-7.5 -9.4,-7.4 C 8.6,36.4 3.4,42.4 3.2,49.8 3,59.1 11.7,65.2 20.7,65.4 33.9,65.6 41.7,56.9 41.6,44.3 41.6,32.9 32.4,21.8 18.6,21.4 11.1,21 4.8,23.1 0,26.5 V 35 c 4.5,-5.3 11.3,-7.8 17.2,-7.7 10,0.1 17.7,7.7 17.8,16.2 0,8.2 -3.4,14.2 -12.6,15.6 -5,0.8 -12.9,-2.1 -12.5,-9.7 0.2,-3.9 3.2,-6.1 6.7,-6 -3.5,4.6 1.1,7.9 4.3,7.2 z" />
    <path
       style="fill:#ff6600"
       d="m 67.3,51.1 12.2,6.2 V 40 l -9.8,1 9.8,-5.4 V 0 H 59.9 c 0.8,2.8 3.6,4.8 3.6,9.4 0,6.4 -7.6,7.9 -7.7,14.5 -0.1,6.4 4.6,8 4.8,13.3 0.1,5.2 -2.1,7.6 -2.1,7.6 0,0 1.3,-1.6 0.7,-5.5 -1.1,-7.9 -8.6,-8.5 -8.8,-15.4 -0.2,-6 4.1,-7.4 4.1,-12.8 C 54.4,5.2 49,3.1 48.4,-0.1 H 0 v 18.5 c 5.2,-3 11.5,-4.8 18.6,-4.8 19.3,0 31.6,13.5 31.6,30.5 C 50.2,61.7 37.9,72.8 21.4,73 11.9,73.2 4.5,69.2 0,63.7 V 79.5 H 52.2 L 58.3,57 63.7,79.6 H 79.5 V 64.7 Z" />
  </g>
</svg>
